<svg width="20" height="20" viewBox="0 0 20 20" fill="none" xmlns="http://www.w3.org/2000/svg">
<path d="M18.3333 4.77363V1.67029C18.3333 1.21029 17.9608 0.836961 17.5 0.836961C17.0392 0.836961 16.6667 1.21029 16.6667 1.67029V3.64196L12.3308 0.716128C10.915 -0.238872 9.085 -0.238872 7.66917 0.716128L1.83583 4.65279C0.686667 5.42863 0 6.71946 0 8.10696V15.837C0 18.1345 1.86917 20.0036 4.16667 20.0036H6.66667C7.1275 20.0036 7.5 19.6303 7.5 19.1703V12.5036C7.5 12.0445 7.87333 11.6703 8.33333 11.6703H11.6667C12.1267 11.6703 12.5 12.0445 12.5 12.5036V19.1703C12.5 19.6303 12.8725 20.0036 13.3333 20.0036H15.8333C18.1308 20.0036 20 18.1345 20 15.837V8.10696C20 6.78946 19.38 5.55863 18.3333 4.77363ZM18.3333 15.837C18.3333 17.2153 17.2117 18.337 15.8333 18.337H14.1667V12.5036C14.1667 11.1253 13.045 10.0036 11.6667 10.0036H8.33333C6.955 10.0036 5.83333 11.1253 5.83333 12.5036V18.337H4.16667C2.78833 18.337 1.66667 17.2153 1.66667 15.837V8.10696C1.66667 7.27446 2.07833 6.49946 2.76833 6.03446L8.60167 2.09779C9.45167 1.52446 10.5483 1.52446 11.3975 2.09779L17.2308 6.03446C17.9208 6.49946 18.3325 7.27446 18.3325 8.10696L18.3333 15.837Z" fill="black" fill-opacity="0.65"/>
</svg>
