<svg width="40" height="40" viewBox="0 0 40 40" fill="none" xmlns="http://www.w3.org/2000/svg">
<rect width="40" height="40" rx="4" fill="#2FB3E3" fill-opacity="0.18"/>
<rect x="0.5" y="0.5" width="39" height="39" rx="3.5" stroke="#2FB3E3" stroke-opacity="0.14"/>
<path d="M28.8657 19.3857C28.2072 17.9457 25.6249 13.25 19.9999 13.25C14.3749 13.25 11.7927 17.9457 11.1342 19.3857C11.0458 19.5787 11 19.7885 11 20.0008C11 20.213 11.0458 20.4228 11.1342 20.6158C11.7927 22.0543 14.3749 26.75 19.9999 26.75C25.6249 26.75 28.2072 22.0543 28.8657 20.6143C28.9539 20.4215 28.9995 20.212 28.9995 20C28.9995 19.788 28.9539 19.5785 28.8657 19.3857ZM19.9999 25.25C15.2697 25.25 13.0624 21.2255 12.4999 20.0082C13.0624 18.7745 15.2697 14.75 19.9999 14.75C24.7189 14.75 26.9269 18.7573 27.4999 20C26.9269 21.2427 24.7189 25.25 19.9999 25.25Z" fill="#2FB3E3"/>
<path d="M20.0005 16.25C19.2588 16.25 18.5338 16.4699 17.9171 16.882C17.3004 17.294 16.8198 17.8797 16.5359 18.5649C16.2521 19.2502 16.1779 20.0042 16.3225 20.7316C16.4672 21.459 16.8244 22.1272 17.3488 22.6517C17.8733 23.1761 18.5415 23.5333 19.2689 23.6779C19.9963 23.8226 20.7503 23.7484 21.4356 23.4645C22.1208 23.1807 22.7064 22.7001 23.1185 22.0834C23.5306 21.4667 23.7505 20.7417 23.7505 20C23.7493 19.0058 23.3538 18.0527 22.6508 17.3497C21.9478 16.6467 20.9947 16.2512 20.0005 16.25ZM20.0005 22.25C19.5555 22.25 19.1205 22.118 18.7505 21.8708C18.3804 21.6236 18.0921 21.2722 17.9218 20.861C17.7515 20.4499 17.7069 19.9975 17.7937 19.561C17.8805 19.1246 18.0948 18.7237 18.4095 18.409C18.7242 18.0943 19.1251 17.88 19.5615 17.7932C19.998 17.7064 20.4504 17.751 20.8615 17.9213C21.2727 18.0916 21.6241 18.38 21.8713 18.75C22.1185 19.12 22.2505 19.555 22.2505 20C22.2505 20.5967 22.0134 21.169 21.5915 21.591C21.1695 22.0129 20.5972 22.25 20.0005 22.25Z" fill="#2FB3E3"/>
</svg>
