<svg width="40" height="40" viewBox="0 0 40 40" fill="none" xmlns="http://www.w3.org/2000/svg">
<rect x="0.5" y="0.5" width="39" height="39" rx="19.5" stroke="white" stroke-opacity="0.2"/>
<path d="M20.0161 28C15.5957 28 12 24.4039 12 19.9845C12 15.8276 15.1164 12.3977 19.2496 12.0047C19.5718 11.9675 19.8641 12.1527 19.9878 12.4451C20.1121 12.7368 20.0329 13.0766 19.7921 13.2829C18.9965 13.9669 18.6096 15.1495 18.6096 16.8973C18.6096 20.6364 20.3289 21.3874 23.1035 21.3874C24.894 21.3874 26.0417 21.0119 26.7166 20.2062C26.9203 19.9612 27.2613 19.8802 27.5537 20.002C27.8475 20.1252 28.0272 20.4256 27.9966 20.7435C27.6075 24.88 24.1762 28 20.0161 28ZM17.6583 13.8582C15.1724 14.8032 13.4546 17.1933 13.4546 19.9838C13.4546 23.5996 16.3986 26.541 20.0161 26.541C22.8031 26.541 25.1908 24.8311 26.1406 22.3557C25.1108 22.7779 23.9871 22.8464 23.1027 22.8464C20.5492 22.8464 17.1543 22.2295 17.1543 16.898C17.1543 15.6928 17.3215 14.6843 17.6583 13.8582Z" fill="white" fill-opacity="0.75"/>
</svg>
